<svg xmlns="http://www.w3.org/2000/svg" viewBox="0 0 900 650">
<style>
  .bg { fill:#0b1020; } .grid { stroke:#18213a; stroke-width:1; }
  .solid { fill:#26324f; stroke:#8fb4ff; stroke-width:2; }
  .accent { fill:#3e5f93; stroke:#a9c5ff; stroke-width:1.5; }
  .hidden { fill:#0b1020; stroke:#64748b; stroke-dasharray:7 6; stroke-width:1.5; }
  .cut { fill:#0b1020; stroke:#f0b36a; stroke-width:2; }
  .center { stroke:#f0b36a; stroke-width:1; stroke-dasharray:4 3; }
  .title { fill:#eef4ff; font:700 28px system-ui,sans-serif; }
  .sub { fill:#9fb0cd; font:16px system-ui,sans-serif; }
  .badge { fill:#d7e5ff; font:700 13px system-ui,sans-serif; letter-spacing:1.2px; }
</style>
<rect width="100%" height="100%" class="bg"/>
<g opacity=".55"><line x1="0" y1="0" x2="0" y2="650" class="grid"/><line x1="50" y1="0" x2="50" y2="650" class="grid"/><line x1="100" y1="0" x2="100" y2="650" class="grid"/><line x1="150" y1="0" x2="150" y2="650" class="grid"/><line x1="200" y1="0" x2="200" y2="650" class="grid"/><line x1="250" y1="0" x2="250" y2="650" class="grid"/><line x1="300" y1="0" x2="300" y2="650" class="grid"/><line x1="350" y1="0" x2="350" y2="650" class="grid"/><line x1="400" y1="0" x2="400" y2="650" class="grid"/><line x1="450" y1="0" x2="450" y2="650" class="grid"/><line x1="500" y1="0" x2="500" y2="650" class="grid"/><line x1="550" y1="0" x2="550" y2="650" class="grid"/><line x1="600" y1="0" x2="600" y2="650" class="grid"/><line x1="650" y1="0" x2="650" y2="650" class="grid"/><line x1="700" y1="0" x2="700" y2="650" class="grid"/><line x1="750" y1="0" x2="750" y2="650" class="grid"/><line x1="800" y1="0" x2="800" y2="650" class="grid"/><line x1="850" y1="0" x2="850" y2="650" class="grid"/><line x1="900" y1="0" x2="900" y2="650" class="grid"/><line x1="0" y1="0" x2="900" y2="0" class="grid"/><line x1="0" y1="50" x2="900" y2="50" class="grid"/><line x1="0" y1="100" x2="900" y2="100" class="grid"/><line x1="0" y1="150" x2="900" y2="150" class="grid"/><line x1="0" y1="200" x2="900" y2="200" class="grid"/><line x1="0" y1="250" x2="900" y2="250" class="grid"/><line x1="0" y1="300" x2="900" y2="300" class="grid"/><line x1="0" y1="350" x2="900" y2="350" class="grid"/><line x1="0" y1="400" x2="900" y2="400" class="grid"/><line x1="0" y1="450" x2="900" y2="450" class="grid"/><line x1="0" y1="500" x2="900" y2="500" class="grid"/><line x1="0" y1="550" x2="900" y2="550" class="grid"/><line x1="0" y1="600" x2="900" y2="600" class="grid"/><line x1="0" y1="650" x2="900" y2="650" class="grid"/></g>
<text x="36" y="48" class="title">dxf-extracted-profile</text>
<text x="36" y="76" class="sub">Top preview · 120 × 40 mm · material: unspecified</text>
<text x="36" y="618" class="badge">REVIEW REQUIRED</text>
<path d="M 250.00 425.00 L 650.00 425.00 L 652.49 424.97 L 654.98 424.88 L 657.47 424.72 L 659.96 424.50 L 662.43 424.22 L 664.90 423.88 L 667.36 423.48 L 669.81 423.02 L 672.25 422.49 L 674.68 421.91 L 677.08 421.26 L 679.48 420.56 L 681.85 419.79 L 684.20 418.97 L 686.53 418.09 L 688.84 417.15 L 691.13 416.15 L 693.39 415.10 L 695.62 413.99 L 697.83 412.82 L 700.00 411.60 L 702.14 410.33 L 704.25 409.00 L 706.33 407.62 L 708.37 406.19 L 710.38 404.71 L 712.35 403.18 L 714.28 401.60 L 716.17 399.98 L 718.02 398.31 L 719.82 396.59 L 721.59 394.82 L 723.31 393.02 L 724.98 391.17 L 726.60 389.28 L 728.18 387.35 L 729.71 385.38 L 731.19 383.37 L 732.62 381.33 L 734.00 379.25 L 735.33 377.14 L 736.60 375.00 L 737.82 372.83 L 738.99 370.62 L 740.10 368.39 L 741.15 366.13 L 742.15 363.84 L 743.09 361.53 L 743.97 359.20 L 744.79 356.85 L 745.56 354.48 L 746.26 352.08 L 746.91 349.68 L 747.49 347.25 L 748.02 344.81 L 748.48 342.36 L 748.88 339.90 L 749.22 337.43 L 749.50 334.96 L 749.72 332.47 L 749.88 329.98 L 749.97 327.49 L 750.00 325.00 L 749.97 322.51 L 749.88 320.02 L 749.72 317.53 L 749.50 315.04 L 749.22 312.57 L 748.88 310.10 L 748.48 307.64 L 748.02 305.19 L 747.49 302.75 L 746.91 300.32 L 746.26 297.92 L 745.56 295.52 L 744.79 293.15 L 743.97 290.80 L 743.09 288.47 L 742.15 286.16 L 741.15 283.87 L 740.10 281.61 L 738.99 279.38 L 737.82 277.17 L 736.60 275.00 L 735.33 272.86 L 734.00 270.75 L 732.62 268.67 L 731.19 266.63 L 729.71 264.62 L 728.18 262.65 L 726.60 260.72 L 724.98 258.83 L 723.31 256.98 L 721.59 255.18 L 719.82 253.41 L 718.02 251.69 L 716.17 250.02 L 714.28 248.40 L 712.35 246.82 L 710.38 245.29 L 708.37 243.81 L 706.33 242.38 L 704.25 241.00 L 702.14 239.67 L 700.00 238.40 L 697.83 237.18 L 695.62 236.01 L 693.39 234.90 L 691.13 233.85 L 688.84 232.85 L 686.53 231.91 L 684.20 231.03 L 681.85 230.21 L 679.48 229.44 L 677.08 228.74 L 674.68 228.09 L 672.25 227.51 L 669.81 226.98 L 667.36 226.52 L 664.90 226.12 L 662.43 225.78 L 659.96 225.50 L 657.47 225.28 L 654.98 225.12 L 652.49 225.03 L 650.00 225.00 L 250.00 225.00 L 247.51 225.03 L 245.02 225.12 L 242.53 225.28 L 240.04 225.50 L 237.57 225.78 L 235.10 226.12 L 232.64 226.52 L 230.19 226.98 L 227.75 227.51 L 225.32 228.09 L 222.92 228.74 L 220.52 229.44 L 218.15 230.21 L 215.80 231.03 L 213.47 231.91 L 211.16 232.85 L 208.87 233.85 L 206.61 234.90 L 204.38 236.01 L 202.17 237.18 L 200.00 238.40 L 197.86 239.67 L 195.75 241.00 L 193.67 242.38 L 191.63 243.81 L 189.62 245.29 L 187.65 246.82 L 185.72 248.40 L 183.83 250.02 L 181.98 251.69 L 180.18 253.41 L 178.41 255.18 L 176.69 256.98 L 175.02 258.83 L 173.40 260.72 L 171.82 262.65 L 170.29 264.62 L 168.81 266.63 L 167.38 268.67 L 166.00 270.75 L 164.67 272.86 L 163.40 275.00 L 162.18 277.17 L 161.01 279.38 L 159.90 281.61 L 158.85 283.87 L 157.85 286.16 L 156.91 288.47 L 156.03 290.80 L 155.21 293.15 L 154.44 295.52 L 153.74 297.92 L 153.09 300.32 L 152.51 302.75 L 151.98 305.19 L 151.52 307.64 L 151.12 310.10 L 150.78 312.57 L 150.50 315.04 L 150.28 317.53 L 150.12 320.02 L 150.03 322.51 L 150.00 325.00 L 150.03 327.49 L 150.12 329.98 L 150.28 332.47 L 150.50 334.96 L 150.78 337.43 L 151.12 339.90 L 151.52 342.36 L 151.98 344.81 L 152.51 347.25 L 153.09 349.68 L 153.74 352.08 L 154.44 354.48 L 155.21 356.85 L 156.03 359.20 L 156.91 361.53 L 157.85 363.84 L 158.85 366.13 L 159.90 368.39 L 161.01 370.62 L 162.18 372.83 L 163.40 375.00 L 164.67 377.14 L 166.00 379.25 L 167.38 381.33 L 168.81 383.37 L 170.29 385.38 L 171.82 387.35 L 173.40 389.28 L 175.02 391.17 L 176.69 393.02 L 178.41 394.82 L 180.18 396.59 L 181.98 398.31 L 183.83 399.98 L 185.72 401.60 L 187.65 403.18 L 189.62 404.71 L 191.63 406.19 L 193.67 407.62 L 195.75 409.00 L 197.86 410.33 L 200.00 411.60 L 202.17 412.82 L 204.38 413.99 L 206.61 415.10 L 208.87 416.15 L 211.16 417.15 L 213.47 418.09 L 215.80 418.97 L 218.15 419.79 L 220.52 420.56 L 222.92 421.26 L 225.32 421.91 L 227.75 422.49 L 230.19 423.02 L 232.64 423.48 L 235.10 423.88 L 237.57 424.22 L 240.04 424.50 L 242.53 424.72 L 245.02 424.88 L 247.51 424.97 L 250.00 425.00 Z" class="solid"/><circle cx="300.00" cy="350.00" r="12.50" class="cut"/><line x1="292.00" y1="350.00" x2="308.00" y2="350.00" class="center"/><line x1="300.00" y1="342.00" x2="300.00" y2="358.00" class="center"/><circle cx="400.00" cy="300.00" r="12.50" class="cut"/><line x1="392.00" y1="300.00" x2="408.00" y2="300.00" class="center"/><line x1="400.00" y1="292.00" x2="400.00" y2="308.00" class="center"/><circle cx="500.00" cy="350.00" r="12.50" class="cut"/><line x1="492.00" y1="350.00" x2="508.00" y2="350.00" class="center"/><line x1="500.00" y1="342.00" x2="500.00" y2="358.00" class="center"/><circle cx="600.00" cy="300.00" r="12.50" class="cut"/><line x1="592.00" y1="300.00" x2="608.00" y2="300.00" class="center"/><line x1="600.00" y1="292.00" x2="600.00" y2="308.00" class="center"/>
</svg>